<svg xmlns="http://www.w3.org/2000/svg" viewBox="0 0 760 220" role="img" aria-labelledby="title">
  <title id="title">STS - Suporte Técnico de Segurança</title>
  <defs>
    <linearGradient id="stsLineDark" x1="190" y1="172" x2="720" y2="172" gradientUnits="userSpaceOnUse">
      <stop offset="0" stop-color="#19a8ff"/>
      <stop offset=".72" stop-color="#19a8ff"/>
      <stop offset="1" stop-color="#17c653"/>
    </linearGradient>
  </defs>
  <rect width="760" height="220" fill="none"/>
  <g transform="translate(24 24) scale(1.35)">
    <path d="M64 11 104 27v34c0 27-15 48-40 58-25-10-40-31-40-58V27Z" fill="#071426" stroke="#d8edff" stroke-width="8" stroke-linejoin="round"/>
    <path d="M64 11 104 27v34c0 27-15 48-40 58-25-10-40-31-40-58V27Z" fill="none" stroke="#19a8ff" stroke-width="4" stroke-linejoin="round"/>
    <path d="M47 36h31l15 15v42H47Z" fill="#0c1d32" stroke="#d8edff" stroke-width="5" stroke-linejoin="round"/>
    <path d="M78 36v16h15" fill="#19a8ff" stroke="#19a8ff" stroke-width="4" stroke-linejoin="round"/>
    <path d="m39 61 8 8 15-17" fill="none" stroke="#17c653" stroke-width="7" stroke-linecap="round" stroke-linejoin="round"/>
    <path d="M64 64h21M64 80h21M34 82l8 8 13-14" fill="none" stroke="#d8edff" stroke-width="6" stroke-linecap="round" stroke-linejoin="round"/>
    <path d="M30 99h22M24 86h15M19 73h16" fill="none" stroke="#19a8ff" stroke-width="5" stroke-linecap="round"/>
    <circle cx="52" cy="99" r="4" fill="#17c653"/>
    <circle cx="24" cy="86" r="4" fill="#19a8ff"/>
    <circle cx="19" cy="73" r="4" fill="#19a8ff"/>
  </g>
  <g transform="translate(210 26)">
    <text x="0" y="92" font-family="Segoe UI, Arial, sans-serif" font-size="112" font-weight="900" font-style="italic" letter-spacing="-4" fill="#e9f5ff">S</text>
    <text x="144" y="92" font-family="Segoe UI, Arial, sans-serif" font-size="112" font-weight="900" font-style="italic" letter-spacing="-4" fill="#19a8ff">T</text>
    <text x="300" y="92" font-family="Segoe UI, Arial, sans-serif" font-size="112" font-weight="900" font-style="italic" letter-spacing="-4" fill="#e9f5ff">S</text>
    <path d="M0 116h534" stroke="url(#stsLineDark)" stroke-width="5" stroke-linecap="round"/>
    <circle cx="332" cy="116" r="8" fill="#071426" stroke="#19a8ff" stroke-width="5"/>
    <text x="0" y="170" font-family="Segoe UI, Arial, sans-serif" font-size="32" font-weight="650" fill="#d8edff">Suporte Técnico de Segurança</text>
  </g>
</svg>
